<svg xmlns="http://www.w3.org/2000/svg" width="43.37" height="39.06" viewBox="0 0 43.37 39.06">
  <g id="Calque_2" data-name="Calque 2">
    <g id="Calque_1-2" data-name="Calque 1">
      <g id="Gomme">
        <path id="Tracé_710" data-name="Tracé 710" d="M19.31,39a1.8,1.8,0,0,1-1.3-.53,1.85,1.85,0,0,1,0-2.6L38.84,15.05a2.86,2.86,0,0,0,0-4.05h0L32.37,4.52a2.93,2.93,0,0,0-4.06,0L7.47,25.35a2.88,2.88,0,0,0,0,4.06h0l6.47,6.47a1.83,1.83,0,1,1-2.52,2.66l-.07-.06L4.87,32a6.57,6.57,0,0,1,0-9.24L25.73,1.92a6.54,6.54,0,0,1,9.26,0l6.47,6.47a6.56,6.56,0,0,1,0,9.26L20.58,38.49A1.79,1.79,0,0,1,19.31,39Z" style="fill: #140a82"/>
        <path id="Tracé_711" data-name="Tracé 711" d="M23.71,34.63a1.86,1.86,0,0,1-1.3-.55L9.28,21a1.84,1.84,0,0,1,2.59-2.58L25,31.49a1.85,1.85,0,0,1-1.3,3.14Z" style="fill: #140a82"/>
        <path id="Tracé_712" data-name="Tracé 712" d="M30.13,39H1.84a1.84,1.84,0,1,1,0-3.67H30.13a1.84,1.84,0,1,1,0,3.67Z" style="fill: #140a82"/>
      </g>
    </g>
  </g>
</svg>
