<svg xmlns="http://www.w3.org/2000/svg" width="43.36" height="43.36" viewBox="0 0 43.36 43.36">
  <g id="Calque_2" data-name="Calque 2">
    <g id="Calque_1-2" data-name="Calque 1">
      <g id="BonhommeCercle">
        <path id="Tracé_213" data-name="Tracé 213" d="M21.68,43.36A21.68,21.68,0,1,1,43.36,21.68,21.68,21.68,0,0,1,21.68,43.36Zm0-39.69a18,18,0,1,0,18,18h0A18,18,0,0,0,21.68,3.67Z" style="fill: #140a82"/>
        <path id="Tracé_214" data-name="Tracé 214" d="M32,38a10.93,10.93,0,0,0-20.71,0L7.85,36.82a14.61,14.61,0,0,1,27.66,0Z" style="fill: #140a82"/>
        <path id="Tracé_215" data-name="Tracé 215" d="M21.68,25a8,8,0,1,1,8-7.95h0A8,8,0,0,1,21.68,25Zm0-12.23A4.28,4.28,0,1,0,26,17.09a4.28,4.28,0,0,0-4.28-4.28h0Z" style="fill: #140a82"/>
      </g>
    </g>
  </g>
</svg>
