<svg xmlns="http://www.w3.org/2000/svg" width="auto" height="24" viewBox="0 0 43.39 33.9">
  <g id="Calque_2" data-name="Calque 2">
    <g id="Calque_1-2" data-name="Calque 1">
      <g id="Courrier">
        <path id="Tracé_1705" data-name="Tracé 1705" d="M40,33.9a3.48,3.48,0,0,1-1.2-.21h0L2.24,20.16a3.42,3.42,0,0,1,0-6.42L38.77.22a3.42,3.42,0,0,1,4.4,2A3.38,3.38,0,0,1,43,5L37,17l6,12a3.43,3.43,0,0,1-1.52,4.6A3.54,3.54,0,0,1,40,33.9ZM4.17,17,39.44,30,33.33,17.77a1.82,1.82,0,0,1,0-1.64L39.46,3.88Z" style="fill: #140a82"/>
        <path id="Tracé_1706" data-name="Tracé 1706" d="M35,18.79H30.05a1.84,1.84,0,0,1,0-3.68H35a1.84,1.84,0,0,1,0,3.68Z" style="fill: #140a82"/>
      </g>
    </g>
  </g>
</svg>
