<svg xmlns="http://www.w3.org/2000/svg" width="43.31" height="43.31" viewBox="0 0 43.31 43.31">
  <g id="Calque_2" data-name="Calque 2">
    <g id="Calque_1-2" data-name="Calque 1">
      <g id="Etiquette">
        <path id="Tracé_1415" data-name="Tracé 1415" d="M24.71,43.31a1.82,1.82,0,0,1-1.3-.54L2.93,22.29a1.78,1.78,0,0,1-.52-1.47L4,5.62A1.81,1.81,0,0,1,5.62,4L20.81,2.4a1.81,1.81,0,0,1,1.47.53l20.5,20.48a1.85,1.85,0,0,1,0,2.6L26,42.77A1.82,1.82,0,0,1,24.71,43.31Zm-18.56-23L24.71,38.9,38.9,24.71,20.32,6.15,7.48,7.48Z" style="fill: #140a82"/>
        <circle id="Ellipse_29" data-name="Ellipse 29" cx="16.56" cy="16.56" r="3.67" style="fill: #140a82"/>
        <path id="Tracé_1416" data-name="Tracé 1416" d="M10.68,12.52A1.86,1.86,0,0,1,9.38,12L.49,3.09A1.84,1.84,0,0,1,3.09.49L12,9.38A1.83,1.83,0,0,1,12,12h0A1.79,1.79,0,0,1,10.68,12.52Z" style="fill: #140a82"/>
      </g>
    </g>
  </g>
</svg>
