<svg xmlns="http://www.w3.org/2000/svg" width="41" height="43.36" viewBox="0 0 41 43.36">
  <g id="Calque_2" data-name="Calque 2">
    <g id="Calque_1-2" data-name="Calque 1">
      <g id="Poubelle">
        <path id="Tracé_602" data-name="Tracé 602" d="M26.13,43.36H14.85A7.42,7.42,0,0,1,7.5,36.61L5.28,9.93,9,9.62,11.2,36.3a3.67,3.67,0,0,0,3.67,3.38H26.13a3.71,3.71,0,0,0,3.68-3.38L32,9.62l3.67.31L33.45,36.61A7.43,7.43,0,0,1,26.13,43.36Z" style="fill: #140a82"/>
        <path id="Tracé_603" data-name="Tracé 603" d="M39.16,11.61H1.84a1.84,1.84,0,1,1,0-3.67H39.16a1.84,1.84,0,1,1,0,3.67Z" style="fill: #140a82"/>
        <path id="Tracé_604" data-name="Tracé 604" d="M30.28,11.61H26.6V9.78a6.11,6.11,0,0,0-6.1-6.11,6.18,6.18,0,0,0-6.11,6.11v1.83H10.72V9.78a9.78,9.78,0,0,1,19.56,0Z" style="fill: #140a82"/>
        <path id="Tracé_605" data-name="Tracé 605" d="M23.93,33.35h-.12a1.83,1.83,0,0,1-1.71-2h0l.73-10.59a1.84,1.84,0,0,1,3.68.24h0l-.74,10.59A1.84,1.84,0,0,1,23.93,33.35Z" style="fill: #140a82"/>
        <path id="Tracé_606" data-name="Tracé 606" d="M17.07,33.35a1.83,1.83,0,0,1-1.83-1.72L14.5,21a1.84,1.84,0,0,1,3.66-.36.49.49,0,0,1,0,.12l.74,10.59a1.85,1.85,0,0,1-1.71,2h-.13Z" style="fill: #140a82"/>
      </g>
    </g>
  </g>
</svg>
