<svg xmlns="http://www.w3.org/2000/svg" width="24" height="24" viewBox="0 0 43.34 43.36">
  <g id="Calque_2" data-name="Calque 2">
    <g id="Calque_1-2" data-name="Calque 1">
      <g id="Stylo">
        <path id="Tracé_659" data-name="Tracé 659" d="M1.84,43.36a1.84,1.84,0,0,1-1.78-2.3l2.28-8.9a1.88,1.88,0,0,1,.47-.85L33.59.53a1.85,1.85,0,0,1,2.6,0l6.62,6.62a1.85,1.85,0,0,1,0,2.6L12,40.54a1.82,1.82,0,0,1-.84.48L2.29,43.3a2.31,2.31,0,0,1-.46.05Zm3.93-9.81L4.41,39l5.41-1.38L39,8.47,34.89,4.41Z" style="fill: #140a82"/>
        <path id="Tracé_660" data-name="Tracé 660" d="M35.83,16a1.84,1.84,0,0,1-1.29-.56L27.93,8.82a1.84,1.84,0,0,1,2.49-2.71l.11.11,6.61,6.61A1.84,1.84,0,0,1,35.84,16Z" style="fill: #140a82"/>
        <path id="Tracé_661" data-name="Tracé 661" d="M34.46,43.36H19.56a1.84,1.84,0,0,1,0-3.68h14.9a1.84,1.84,0,0,1,0,3.68Z" style="fill: #140a82"/>
      </g>
    </g>
  </g>
</svg>
