<svg xmlns="http://www.w3.org/2000/svg" width="43.36" height="43.36" viewBox="0 0 43.36 43.36">
  <g id="Calque_2" data-name="Calque 2">
    <g id="Calque_1-2" data-name="Calque 1">
      <g id="PlusCercle">
        <path id="Tracé_225" data-name="Tracé 225" d="M21.68,43.36A21.68,21.68,0,1,1,43.36,21.68,21.68,21.68,0,0,1,21.68,43.36Zm0-39.69a18,18,0,1,0,18,18h0A18,18,0,0,0,21.68,3.67Z" style="fill: #140a82"/>
        <path id="Tracé_226" data-name="Tracé 226" d="M32,23.52H11.39a1.84,1.84,0,0,1,0-3.68H32a1.84,1.84,0,1,1,0,3.68Z" style="fill: #140a82"/>
        <path id="Tracé_227" data-name="Tracé 227" d="M21.68,33.81A1.85,1.85,0,0,1,19.84,32h0V11.39a1.84,1.84,0,0,1,3.68,0V32a1.84,1.84,0,0,1-1.84,1.84Z" style="fill: #140a82"/>
      </g>
    </g>
  </g>
</svg>
